<svg width="34" height="34" viewBox="0 0 34 34" fill="none" xmlns="http://www.w3.org/2000/svg">
<mask id="mask0_99_237" style="mask-type:alpha" maskUnits="userSpaceOnUse" x="0" y="0" width="34" height="34">
<rect width="34" height="34" fill="#D9D9D9"/>
</mask>
<g mask="url(#mask0_99_237)">
<path d="M8.53274 24.4973C9.73691 23.6037 11.0487 22.8981 12.4681 22.3804C13.8874 21.8628 15.3981 21.604 17 21.604C18.6019 21.604 20.1126 21.8628 21.532 22.3804C22.9514 22.8981 24.2631 23.6037 25.4673 24.4973C26.3482 23.5292 27.0461 22.4086 27.561 21.1354C28.0759 19.8622 28.3334 18.4837 28.3334 16.9998C28.3334 13.8595 27.2295 11.1856 25.0219 8.97793C22.8143 6.77029 20.1403 5.66647 17 5.66647C13.8597 5.66647 11.1858 6.77029 8.97814 8.97793C6.7705 11.1856 5.66668 13.8595 5.66668 16.9998C5.66668 18.4837 5.92414 19.8622 6.43905 21.1354C6.95396 22.4086 7.65186 23.5292 8.53274 24.4973ZM17.0004 18.0623C15.707 18.0623 14.6162 17.6183 13.7281 16.7305C12.84 15.8426 12.3959 14.752 12.3959 13.4586C12.3959 12.1651 12.8398 11.0743 13.7277 10.1862C14.6155 9.29807 15.7062 8.854 16.9996 8.854C18.293 8.854 19.3838 9.29793 20.2719 10.1858C21.1601 11.0737 21.6041 12.1643 21.6041 13.4577C21.6041 14.7512 21.1602 15.8419 20.2724 16.7301C19.3845 17.6182 18.2939 18.0623 17.0004 18.0623ZM17 30.4581C15.1311 30.4581 13.378 30.1067 11.7407 29.4037C10.1033 28.7009 8.67895 27.7437 7.46751 26.5323C6.2561 25.3209 5.29895 23.8965 4.59607 22.2591C3.89317 20.6218 3.54172 18.8687 3.54172 16.9998C3.54172 15.1309 3.89317 13.3778 4.59607 11.7405C5.29895 10.1031 6.2561 8.67874 7.46751 7.4673C8.67895 6.25588 10.1033 5.29874 11.7407 4.59586C13.378 3.89296 15.1311 3.5415 17 3.5415C18.8689 3.5415 20.622 3.89296 22.2594 4.59586C23.8967 5.29874 25.3211 6.25588 26.5325 7.4673C27.7439 8.67874 28.7011 10.1031 29.404 11.7405C30.1069 13.3778 30.4583 15.1309 30.4583 16.9998C30.4583 18.8687 30.1069 20.6218 29.404 22.2591C28.7011 23.8965 27.7439 25.3209 26.5325 26.5323C25.3211 27.7437 23.8967 28.7009 22.2594 29.4037C20.622 30.1067 18.8689 30.4581 17 30.4581ZM17 28.3331C18.2787 28.3331 19.5114 28.1275 20.6983 27.7161C21.8853 27.3047 22.9391 26.7294 23.86 25.9902C22.9391 25.2782 21.8989 24.7234 20.7392 24.3256C19.5795 23.9278 18.3331 23.7289 17 23.7289C15.6669 23.7289 14.4182 23.9255 13.254 24.3188C12.0898 24.712 11.0518 25.2691 10.1401 25.9902C11.0609 26.7294 12.1148 27.3047 13.3017 27.7161C14.4886 28.1275 15.7214 28.3331 17 28.3331ZM17 15.9373C17.7047 15.9373 18.2941 15.7003 18.7682 15.2263C19.2422 14.7522 19.4792 14.1628 19.4792 13.4581C19.4792 12.7534 19.2422 12.1641 18.7682 11.69C18.2941 11.216 17.7047 10.9789 17 10.9789C16.2953 10.9789 15.7059 11.216 15.2319 11.69C14.7578 12.1641 14.5208 12.7534 14.5208 13.4581C14.5208 14.1628 14.7578 14.7522 15.2319 15.2263C15.7059 15.7003 16.2953 15.9373 17 15.9373Z" fill="#3A2817"/>
</g>
</svg>
