<svg width="34" height="34" viewBox="0 0 34 34" fill="none" xmlns="http://www.w3.org/2000/svg">
<mask id="mask0_124_102" style="mask-type:alpha" maskUnits="userSpaceOnUse" x="0" y="0" width="34" height="34">
<rect width="34" height="34" fill="#D9D9D9"/>
</mask>
<g mask="url(#mask0_124_102)">
<path d="M8.53274 24.4974C9.73691 23.6039 11.0487 22.8983 12.4681 22.3806C13.8874 21.863 15.3981 21.6042 17 21.6042C18.6019 21.6042 20.1126 21.863 21.532 22.3806C22.9514 22.8983 24.2631 23.6039 25.4673 24.4974C26.3482 23.5294 27.0461 22.4088 27.561 21.1356C28.0759 19.8624 28.3334 18.4839 28.3334 17C28.3334 13.8597 27.2295 11.1858 25.0219 8.97811C22.8143 6.77047 20.1403 5.66665 17 5.66665C13.8597 5.66665 11.1858 6.77047 8.97814 8.97811C6.7705 11.1858 5.66668 13.8597 5.66668 17C5.66668 18.4839 5.92414 19.8624 6.43905 21.1356C6.95396 22.4088 7.65186 23.5294 8.53274 24.4974ZM17.0004 18.0625C15.707 18.0625 14.6162 17.6185 13.7281 16.7307C12.84 15.8428 12.3959 14.7522 12.3959 13.4587C12.3959 12.1653 12.8398 11.0745 13.7277 10.1864C14.6155 9.29826 15.7062 8.85419 16.9996 8.85419C18.293 8.85419 19.3838 9.29811 20.2719 10.186C21.1601 11.0738 21.6041 12.1645 21.6041 13.4579C21.6041 14.7513 21.1602 15.8421 20.2724 16.7303C19.3845 17.6184 18.2939 18.0625 17.0004 18.0625ZM17 30.4583C15.1311 30.4583 13.378 30.1068 11.7407 29.4039C10.1033 28.7011 8.67895 27.7439 7.46751 26.5325C6.2561 25.3211 5.29895 23.8967 4.59607 22.2593C3.89317 20.622 3.54172 18.8689 3.54172 17C3.54172 15.1311 3.89317 13.378 4.59607 11.7406C5.29895 10.1033 6.2561 8.67892 7.46751 7.46748C8.67895 6.25607 10.1033 5.29892 11.7407 4.59604C13.378 3.89314 15.1311 3.54169 17 3.54169C18.8689 3.54169 20.622 3.89314 22.2594 4.59604C23.8967 5.29892 25.3211 6.25607 26.5325 7.46748C27.7439 8.67892 28.7011 10.1033 29.404 11.7406C30.1069 13.378 30.4583 15.1311 30.4583 17C30.4583 18.8689 30.1069 20.622 29.404 22.2593C28.7011 23.8967 27.7439 25.3211 26.5325 26.5325C25.3211 27.7439 23.8967 28.7011 22.2594 29.4039C20.622 30.1068 18.8689 30.4583 17 30.4583ZM17 28.3333C18.2787 28.3333 19.5114 28.1276 20.6983 27.7163C21.8853 27.3049 22.9391 26.7296 23.86 25.9904C22.9391 25.2784 21.8989 24.7235 20.7392 24.3258C19.5795 23.928 18.3331 23.7291 17 23.7291C15.6669 23.7291 14.4182 23.9257 13.254 24.3189C12.0898 24.7122 11.0518 25.2693 10.1401 25.9904C11.0609 26.7296 12.1148 27.3049 13.3017 27.7163C14.4886 28.1276 15.7214 28.3333 17 28.3333ZM17 15.9375C17.7047 15.9375 18.2941 15.7005 18.7682 15.2265C19.2422 14.7524 19.4792 14.163 19.4792 13.4583C19.4792 12.7536 19.2422 12.1642 18.7682 11.6902C18.2941 11.2161 17.7047 10.9791 17 10.9791C16.2953 10.9791 15.7059 11.2161 15.2319 11.6902C14.7578 12.1642 14.5208 12.7536 14.5208 13.4583C14.5208 14.163 14.7578 14.7524 15.2319 15.2265C15.7059 15.7005 16.2953 15.9375 17 15.9375Z" fill="#1C1B1F"/>
</g>
</svg>
